<svg width="51" height="52" viewBox="0 0 51 52" fill="none" xmlns="http://www.w3.org/2000/svg">
<g clip-path="url(#clip0)">
<path d="M33.8069 26.2614L51.0003 37.1308V14.933L33.8069 26.2614Z" fill="#CDBA6D"/>
<path d="M0 14.933V37.1308L17.1934 26.2614L0 14.933Z" fill="#CDBA6D"/>
<path d="M47.8123 8.46875H3.18733C1.59677 8.46875 0.334521 9.6545 0.095459 11.1813L25.4998 27.9189L50.9042 11.1813C50.6651 9.6545 49.4029 8.46875 47.8123 8.46875Z" fill="#CDBA6D"/>
<path d="M30.8869 28.1867L26.3766 31.1575C26.1089 31.3328 25.806 31.4188 25.5 31.4188C25.194 31.4188 24.8912 31.3328 24.6235 31.1575L20.1132 28.1835L0.102051 40.8411C0.347488 42.3552 1.60336 43.5313 3.18755 43.5313H47.8125C49.3967 43.5313 50.6526 42.3552 50.898 40.8411L30.8869 28.1867Z" fill="#CDBA6D"/>
</g>
<defs>
<clipPath id="clip0">
<rect width="51" height="51" fill="white" transform="translate(0 0.5)"/>
</clipPath>
</defs>
</svg>
