<svg width="25" height="26" viewBox="0 0 25 26" fill="none" xmlns="http://www.w3.org/2000/svg">
<g clip-path="url(#clip0)">
<path d="M16.572 13.1281L25.0001 18.4562V7.57495L16.572 13.1281Z" fill="#CDBA6D"/>
<path d="M0 7.57495V18.4562L8.42813 13.1281L0 7.57495Z" fill="#CDBA6D"/>
<path d="M23.4374 4.40625H1.56243C0.782738 4.40625 0.163988 4.9875 0.0468006 5.73594L12.4999 13.9406L24.953 5.73594C24.8359 4.9875 24.2171 4.40625 23.4374 4.40625Z" fill="#CDBA6D"/>
<path d="M15.1407 14.0719L12.9297 15.5281C12.7985 15.6141 12.6501 15.6562 12.5001 15.6562C12.3501 15.6562 12.2016 15.6141 12.0704 15.5281L9.85943 14.0703L0.0500565 20.275C0.170369 21.0172 0.785994 21.5937 1.56256 21.5937H23.4376C24.2141 21.5937 24.8297 21.0172 24.9501 20.275L15.1407 14.0719Z" fill="#CDBA6D"/>
</g>
<defs>
<clipPath id="clip0">
<rect width="25" height="25" fill="white" transform="translate(0 0.5)"/>
</clipPath>
</defs>
</svg>
