<svg width="41" height="41" viewBox="0 0 41 41" fill="none" xmlns="http://www.w3.org/2000/svg">
<g clip-path="url(#clip0)">
<path d="M25.1732 9.99512H15.8756C12.7182 9.99512 10.1495 12.5935 10.1495 15.7872V25.1916C10.1495 28.3855 12.7182 30.9838 15.8756 30.9838H25.1732C28.3309 30.9838 30.8996 28.3854 30.8996 25.1916V15.7872C30.8997 12.5935 28.3309 9.99512 25.1732 9.99512ZM29.0587 25.1916C29.0587 27.3586 27.3156 29.1215 25.1734 29.1215H15.8756C13.7334 29.1216 11.9905 27.3586 11.9905 25.1916V15.7872C11.9905 13.6204 13.7334 11.8573 15.8756 11.8573H25.1732C27.3155 11.8573 29.0585 13.6204 29.0585 15.7872V25.1916H29.0587Z" fill="white"/>
<path d="M20.5236 15.0818C17.5753 15.0818 15.1768 17.5079 15.1768 20.49C15.1768 23.472 17.5753 25.898 20.5236 25.898C23.4719 25.898 25.8704 23.472 25.8704 20.49C25.8704 17.5079 23.4719 15.0818 20.5236 15.0818ZM20.5236 24.0357C18.5906 24.0357 17.0179 22.4451 17.0179 20.4899C17.0179 18.5346 18.5905 16.9439 20.5236 16.9439C22.4567 16.9439 24.0293 18.5346 24.0293 20.4899C24.0293 22.4451 22.4566 24.0357 20.5236 24.0357Z" fill="white"/>
<path d="M26.0936 13.5022C25.739 13.5022 25.3904 13.6474 25.14 13.902C24.8882 14.1552 24.7435 14.5078 24.7435 14.8678C24.7435 15.2267 24.8883 15.5792 25.14 15.8337C25.3903 16.087 25.739 16.2334 26.0936 16.2334C26.4496 16.2334 26.7969 16.087 27.0485 15.8337C27.3001 15.5792 27.4437 15.2266 27.4437 14.8678C27.4437 14.5078 27.3001 14.1552 27.0485 13.902C26.7982 13.6474 26.4496 13.5022 26.0936 13.5022Z" fill="white"/>
</g>
<circle cx="20.5137" cy="20.5" r="19.5" stroke="#CDBA6D"/>
<defs>
<clipPath id="clip0">
<rect width="22.7857" height="22" fill="white" transform="translate(9.12085 9.5)"/>
</clipPath>
</defs>
</svg>
