<svg width="120" height="76" viewBox="0 0 120 76" fill="none" xmlns="http://www.w3.org/2000/svg">
<g clip-path="url(#clip0)">
<path d="M29.5781 27.1635V28.6869C26.9531 31.6088 24.5391 34.015 22.3359 35.9056C20.1484 37.8119 18.0078 39.2728 15.9141 40.2885C13.8203 41.3197 11.7969 41.8353 9.84375 41.8353C8.15625 41.8353 6.70312 41.4994 5.48438 40.8275C4.28125 40.1556 3.36719 39.1713 2.74219 37.8744C2.13281 36.5931 1.82812 35.0697 1.82812 33.3041C1.82812 31.9135 2.04688 30.4447 2.48438 28.8978C2.9375 27.3353 3.58594 25.765 4.42969 24.1869C5.27344 22.5931 6.30469 20.9525 7.52344 19.265C8.75781 17.5775 10.2031 15.8041 11.8594 13.9447C13.5781 12.0228 15.2734 10.3666 16.9453 8.97595C18.6172 7.5697 20.1328 6.46814 21.4922 5.67126C22.8516 4.87439 24.1094 4.28064 25.2656 3.89001C26.4375 3.49939 27.4062 3.30408 28.1719 3.30408C28.9531 3.30408 29.6172 3.49158 30.1641 3.86658C30.7109 4.24158 31.1328 4.78845 31.4297 5.5072C31.7266 6.22595 31.875 7.05408 31.875 7.99158C31.875 9.7572 31.2734 11.726 30.0703 13.8978C28.8672 16.0541 27.3672 18.14 25.5703 20.1556C23.7734 22.1713 22.0547 23.8197 20.4141 25.101C18.7891 26.3666 17.6172 26.9994 16.8984 26.9994C16.4141 26.9994 15.9609 26.8119 15.5391 26.4369C15.1328 26.0463 14.9297 25.6088 14.9297 25.1244C14.9297 24.2338 15.3984 23.1556 16.3359 21.89C17.2891 20.6244 18.3203 19.4681 19.4297 18.4213C20.5547 17.3588 21.2266 16.8275 21.4453 16.8275C21.5547 16.8275 21.6094 16.8744 21.6094 16.9681C21.6094 17.1088 21.5234 17.351 21.3516 17.6947C21.1953 18.0385 21.1172 18.2494 21.1172 18.3275C21.1172 18.4525 21.1641 18.515 21.2578 18.515C21.5234 18.515 22.2891 17.8041 23.5547 16.3822C24.8203 14.9603 25.9766 13.3978 27.0234 11.6947C28.0859 9.97595 28.6172 8.5697 28.6172 7.47595C28.6172 7.02283 28.5156 6.67908 28.3125 6.4447C28.125 6.1947 27.8359 6.0697 27.4453 6.0697C26.3516 6.0697 24.6875 6.96033 22.4531 8.74158C20.2344 10.5072 17.9531 12.765 15.6094 15.515C13.2812 18.2494 11.3359 21.0775 9.77344 23.9994C8.21094 26.9213 7.42969 29.4916 7.42969 31.7103C7.42969 32.9916 7.61719 34.0619 7.99219 34.9213C8.38281 35.7806 8.94531 36.4447 9.67969 36.9135C10.4297 37.3822 11.3281 37.6166 12.375 37.6166C14.6406 37.6166 17.2109 36.7338 20.0859 34.9681C22.9609 33.2025 26.125 30.601 29.5781 27.1635ZM53.6484 27.8666C53.2578 27.1478 52.6719 26.4994 51.8906 25.9213C51.1094 25.3431 50.2266 24.8822 49.2422 24.5385C48.2734 24.1791 47.2578 23.9135 46.1953 23.7416C43.0391 23.2728 40.0938 22.2494 37.3594 20.6713C37.125 20.5463 36.875 20.2806 36.6094 19.8744C36.3438 19.4681 36.2109 19.0775 36.2109 18.7025C36.2109 17.3275 36.4375 15.9525 36.8906 14.5775C37.3594 13.1869 37.9531 12.101 38.6719 11.3197C39.8281 10.0228 41.9062 8.89001 44.9062 7.92126C47.9219 6.95251 51.3125 6.46814 55.0781 6.46814C57.3281 6.46814 59.0625 6.64001 60.2812 6.98376C61.5156 7.32751 62.1328 7.85876 62.1328 8.57751C62.1328 9.74939 61.9688 10.6556 61.6406 11.2963C61.3281 11.9369 60.9844 12.3666 60.6094 12.5853C60.25 12.7885 59.6094 13.0697 58.6875 13.4291C57.7031 13.7728 56.8438 14.1322 56.1094 14.5072C55.3906 14.8822 54.7734 15.2416 54.2578 15.5853C53.7422 15.9291 53.4219 16.101 53.2969 16.101C53.1406 16.101 53.0625 16.0385 53.0625 15.9135C53.0625 15.6478 53.3359 15.2494 53.8828 14.7181C54.4453 14.1713 55.1328 13.6947 55.9453 13.2885C56.8047 12.8353 57.2344 12.5463 57.2344 12.4213C57.2344 12.2181 56.7578 12.1166 55.8047 12.1166C52.9141 12.1166 50.2422 12.3744 47.7891 12.89C45.3359 13.4056 43.3984 14.0853 41.9766 14.9291C40.5703 15.7728 39.8672 16.6322 39.8672 17.5072C39.8672 18.0541 40.1562 18.4447 40.7344 18.6791C41.3281 18.8978 42.625 19.2728 44.625 19.8041C46.625 20.3353 48.4141 20.9447 49.9922 21.6322C52.2578 22.601 53.9375 23.6088 55.0312 24.6556C56.125 25.7025 56.6719 26.8744 56.6719 28.1713C56.6719 29.0619 56.4531 29.9603 56.0156 30.8666C55.5938 31.7572 54.9688 32.5775 54.1406 33.3275C53.3125 34.0775 52.3594 34.6947 51.2812 35.1791C50.3594 35.5697 49.1953 35.9369 47.7891 36.2806C46.3984 36.6244 44.8828 36.89 43.2422 37.0775C41.6172 37.2806 40.0625 37.3822 38.5781 37.3822C35.8438 37.3822 33.6406 37.1244 31.9688 36.6088C30.3125 36.0931 29.4844 35.3119 29.4844 34.265C29.4844 33.7963 29.7656 33.0697 30.3281 32.0853C30.8906 31.0853 31.5547 30.4135 32.3203 30.0697C32.9922 29.8041 33.6406 29.6556 34.2656 29.6244C34.8906 29.5775 35.2031 29.6478 35.2031 29.8353C35.2031 29.8822 35.1797 29.9291 35.1328 29.976C35.0859 30.0228 35.0312 30.0619 34.9688 30.0931C34.9062 30.1244 34.8438 30.1556 34.7812 30.1869C34.4688 30.3119 34.2109 30.4135 34.0078 30.4916C33.8203 30.5541 33.6641 30.6244 33.5391 30.7025C33.4297 30.765 33.375 30.8588 33.375 30.9838C33.375 31.3119 34.9922 31.476 38.2266 31.476C41.0391 31.476 43.3438 31.3744 45.1406 31.1713C46.9375 30.9681 48.5234 30.601 49.8984 30.0697C51.2734 29.5385 52.5234 28.8041 53.6484 27.8666ZM100.57 27.1635V28.7806C99.0859 30.1713 97.8203 31.2963 96.7734 32.1556C95.7422 32.9994 94.7109 33.765 93.6797 34.4525C92.6484 35.1244 91.7891 35.601 91.1016 35.8822C90.4297 36.1791 89.8516 36.3275 89.3672 36.3275C88.2109 36.3275 87.2656 35.8978 86.5312 35.0385C85.7969 34.1791 85.4297 33.0697 85.4297 31.7103C85.4297 30.1478 85.7422 28.601 86.3672 27.0697C87.0078 25.5385 87.9141 23.9603 89.0859 22.3353C90.2578 20.6947 91.7266 18.8588 93.4922 16.8275C94.8047 15.3275 95.4609 14.4838 95.4609 14.2963C95.4609 14.1869 95.4219 14.0931 95.3438 14.015C95.2656 13.9369 95.1797 13.8978 95.0859 13.8978C94.7891 13.8978 93.875 14.5541 92.3438 15.8666C90.8125 17.1791 88.8438 19.1088 86.4375 21.6556C84.0469 24.2025 81.4609 27.2338 78.6797 30.7494C78.5234 30.9369 78.0234 31.5775 77.1797 32.6713C76.3516 33.7494 75.7656 34.4525 75.4219 34.7806C75.0781 35.1088 74.7812 35.2728 74.5312 35.2728C74.0938 35.2728 73.7109 34.8353 73.3828 33.9603C73.0703 33.0697 72.9141 32.1244 72.9141 31.1244C72.9141 30.515 73.1094 29.8588 73.5 29.1556C73.9062 28.4525 74.7734 27.1947 76.1016 25.3822C77.4453 23.5541 78.5547 22.015 79.4297 20.765C80.3047 19.515 81.2656 17.9994 82.3125 16.2181C83.0469 14.9838 83.5859 13.9994 83.9297 13.265C84.2891 12.5306 84.4688 11.8822 84.4688 11.3197C84.4688 10.8353 84.3281 10.5931 84.0469 10.5931C83.4531 10.5931 82.3359 11.39 80.6953 12.9838C79.0547 14.5619 77.0234 16.9135 74.6016 20.0385C72.1953 23.1635 69.6797 26.7806 67.0547 30.89C66.1953 32.2963 65.5859 33.2416 65.2266 33.726C64.8672 34.2103 64.4688 34.4525 64.0312 34.4525C63.4844 34.4525 62.9688 33.8744 62.4844 32.7181C62.0156 31.5463 61.7812 30.601 61.7812 29.8822C61.7812 29.6478 61.875 29.39 62.0625 29.1088C64.125 26.3588 65.8203 24.0228 67.1484 22.101C68.4766 20.1791 69.6562 18.3588 70.6875 16.64C71.7188 14.9056 72.4688 13.4838 72.9375 12.3744C73.4062 11.2494 73.6406 10.3666 73.6406 9.72595C73.6406 9.05408 73.3359 8.71814 72.7266 8.71814C72.2266 8.71814 71.375 9.03845 70.1719 9.67908C68.9688 10.3197 67.4453 11.1947 65.6016 12.3041C63.7734 13.4135 62.3047 14.265 61.1953 14.8588C60.0859 15.4369 59.2578 15.726 58.7109 15.726C58.1953 15.726 57.9375 15.4369 57.9375 14.8588C57.9375 14.5306 58.0469 13.7806 58.2656 12.6088C58.4844 11.4213 58.7109 10.5853 58.9453 10.101C59.2734 9.47595 60.1094 8.64783 61.4531 7.61658C62.8125 6.58533 63.5625 6.0697 63.7031 6.0697C63.8281 6.0697 63.8906 6.12439 63.8906 6.23376C63.8906 6.29626 63.8281 6.39001 63.7031 6.51501C63.0625 7.03064 62.5859 7.45251 62.2734 7.78064C61.9609 8.10876 61.7656 8.46814 61.6875 8.85876C64.5469 7.14001 67.1016 5.83533 69.3516 4.9447C71.6172 4.03845 73.1875 3.58533 74.0625 3.58533C74.5 3.58533 74.9141 3.8822 75.3047 4.47595C75.6953 5.05408 76.0234 5.73376 76.2891 6.51501C76.5703 7.28064 76.7109 7.77283 76.7109 7.99158C76.7109 8.78845 76.5078 9.73376 76.1016 10.8275C75.6953 11.9056 75.1406 13.1635 74.4375 14.601C73.75 16.0385 72.8906 17.8353 71.8594 19.9916C72.6719 18.9447 73.4453 17.976 74.1797 17.0853C74.9141 16.1947 75.6406 15.3275 76.3594 14.4838C77.0938 13.64 77.8359 12.7885 78.5859 11.9291C79.6016 10.7572 80.7422 9.64001 82.0078 8.57751C83.2734 7.49939 84.4531 6.62439 85.5469 5.95251C86.6562 5.26501 87.4062 4.92126 87.7969 4.92126C88.3438 4.92126 88.8281 5.22595 89.25 5.83533C89.6875 6.42908 89.9062 7.0697 89.9062 7.7572C89.9062 8.21033 89.6094 9.07751 89.0156 10.3588C88.4219 11.64 87.5547 13.2806 86.4141 15.2806C85.2734 17.2806 83.7656 19.8588 81.8906 23.015C83.6719 21.1244 85.5234 19.1791 87.4453 17.1791C89.3672 15.1791 90.7969 13.7181 91.7344 12.7963C92.6719 11.8744 93.4531 11.1713 94.0781 10.6869C94.9375 10.0306 95.7969 9.32751 96.6562 8.57751C97.5312 7.81189 98.2188 7.21033 98.7188 6.77283C99.2188 6.33533 99.6641 5.99939 100.055 5.76501C100.445 5.53064 100.805 5.41345 101.133 5.41345C101.539 5.41345 102.047 5.8822 102.656 6.8197C103.281 7.7572 103.594 8.35876 103.594 8.62439C103.594 8.95251 103.406 9.34314 103.031 9.79626C102.672 10.2494 101.914 11.0931 100.758 12.3275C98.6328 14.6088 96.7891 16.9135 95.2266 19.2416C93.6641 21.5541 92.4766 23.6713 91.6641 25.5931C90.8672 27.4994 90.4688 29.0072 90.4688 30.1166C90.4688 30.8041 90.5938 31.3041 90.8438 31.6166C91.1094 31.9291 91.5156 32.0853 92.0625 32.0853C92.5625 32.0853 93.0234 31.9916 93.4453 31.8041C93.8828 31.6166 94.3594 31.351 94.875 31.0072C95.4062 30.6635 95.9062 30.3353 96.375 30.0228C97.0312 29.6322 97.6719 29.2181 98.2969 28.7806C98.9375 28.3275 99.4297 27.976 99.7734 27.726C100.133 27.4603 100.398 27.2728 100.57 27.1635Z" fill="#343A42"/>
<path d="M73.9678 47.6272L74.3311 47.9905C73.6904 48.7952 73.1279 49.3811 72.6436 49.7483C72.167 50.1155 71.8154 50.2991 71.5889 50.2991C71.4014 50.2991 71.3076 50.1311 71.3076 49.7952C71.3076 48.9592 71.8584 47.6702 72.96 45.928C73.8896 44.4202 74.3545 43.5803 74.3545 43.4084C74.3545 43.26 74.292 43.1858 74.167 43.1858C73.9482 43.1858 73.3975 43.678 72.5146 44.6624C71.6318 45.6467 70.542 47.0374 69.2451 48.8342C67.7764 50.8342 66.7686 52.2639 66.2217 53.1233C67.2607 53.2249 68.1123 53.3577 68.7764 53.5217C69.4482 53.678 70.417 53.9358 71.6826 54.2952C72.9561 54.6545 73.8936 54.8655 74.4951 54.928C73.7607 55.7639 73.2529 56.3303 72.9717 56.6272C72.6982 56.9319 72.4873 57.1155 72.3389 57.178C72.1045 57.2795 71.7568 57.2834 71.2959 57.1897C70.835 57.1038 70.1045 56.9319 69.1045 56.6741C68.1045 56.4163 67.167 56.2014 66.292 56.0295C65.4248 55.8577 64.6318 55.7717 63.9131 55.7717C63.5068 55.7717 63.1553 55.8186 62.8584 55.9124C62.5693 56.0061 62.1631 56.1624 61.6396 56.3811C61.124 56.592 60.7607 56.6975 60.5498 56.6975C60.2451 56.6975 60.0928 56.5725 60.0928 56.3225C60.0928 56.1819 60.1436 56.0217 60.2451 55.842C60.5029 55.428 60.7529 55.0334 60.9951 54.6584C61.2373 54.2834 61.4951 53.9905 61.7686 53.7795C62.042 53.5686 62.4365 53.4045 62.9521 53.2874C63.4678 53.1702 64.1475 53.1077 64.9912 53.0999C66.2646 51.1467 67.4521 49.4163 68.5537 47.9084C69.6553 46.3928 70.6553 45.1155 71.5537 44.0764C72.46 43.0374 73.2529 42.2522 73.9326 41.7209C74.6123 41.1819 75.1514 40.9124 75.5498 40.9124C75.8311 40.9124 76.0498 40.9905 76.2061 41.1467C76.3623 41.303 76.4404 41.5217 76.4404 41.803C76.4404 42.7405 75.6162 44.6819 73.9678 47.6272ZM77.2021 50.7209C78.3896 49.6428 79.542 48.842 80.6592 48.3186C81.7764 47.7952 82.6396 47.5334 83.249 47.5334C83.4131 47.5334 83.5654 47.6038 83.7061 47.7444C83.8467 47.8772 83.9561 48.0334 84.0342 48.2131C84.1201 48.3928 84.1631 48.5256 84.1631 48.6116C84.1631 48.7522 84.1084 48.8577 83.999 48.928C83.8896 48.9905 83.6982 49.0686 83.4248 49.1624C83.4795 49.2874 83.5498 49.4475 83.6357 49.6428C83.7217 49.8381 83.7881 49.9983 83.835 50.1233C83.8818 50.2405 83.9053 50.3459 83.9053 50.4397C83.9053 50.6272 83.7139 50.9788 83.3311 51.4944C82.9561 52.0022 82.6904 52.3772 82.5342 52.6194C82.3857 52.8616 82.3115 53.1584 82.3115 53.51C82.3115 54.0881 82.5771 54.3772 83.1084 54.3772C83.6553 54.3772 84.5107 53.8655 85.6748 52.842V53.5569C83.6982 55.7522 82.2842 56.8499 81.4326 56.8499C81.1279 56.8499 80.9092 56.7483 80.7764 56.5452C80.6514 56.3499 80.5889 56.0569 80.5889 55.6663C80.5889 55.0491 80.8115 54.1545 81.2568 52.9827C80.1162 54.2483 79.2686 55.1506 78.7139 55.6897C78.1592 56.2209 77.7021 56.4866 77.3428 56.4866C77.1709 56.4866 76.9561 56.3381 76.6982 56.0413C76.4404 55.7444 76.21 55.3616 76.0068 54.8928C75.8115 54.4163 75.7139 53.9241 75.7139 53.4163C75.7139 53.0491 75.749 52.7444 75.8193 52.5022C75.8896 52.2522 76.0264 51.9983 76.2295 51.7405C76.4326 51.4827 76.7568 51.1428 77.2021 50.7209ZM82.8154 49.4319C80.7842 50.3616 79.335 51.1506 78.4678 51.7991C77.6084 52.4475 77.1787 53.1155 77.1787 53.803C77.1787 54.053 77.2217 54.26 77.3076 54.4241C77.3936 54.5803 77.5107 54.6584 77.6592 54.6584C77.7451 54.6584 77.8975 54.6038 78.1162 54.4944C78.9365 54.01 79.6865 53.3811 80.3662 52.6077C81.0459 51.8264 81.8623 50.7678 82.8154 49.4319ZM91.71 54.2014C91.71 54.553 91.8428 54.7288 92.1084 54.7288C92.4521 54.7288 93.0537 54.1467 93.9131 52.9827C93.8818 52.7639 93.8662 52.6194 93.8662 52.5491C93.8662 52.1272 94.0342 51.6116 94.3701 51.0022C94.7061 50.3928 95.0928 49.8616 95.5303 49.4084C95.9678 48.9553 96.2998 48.7288 96.5264 48.7288C96.7998 48.7288 96.9365 49.0569 96.9365 49.7131C96.9365 50.2522 96.8193 50.7834 96.585 51.3069C96.3584 51.8303 96.0264 52.3655 95.5889 52.9124C95.6592 52.9827 95.7373 53.0569 95.8232 53.135C95.9092 53.2053 95.999 53.2678 96.0928 53.3225C96.1943 53.3694 96.2998 53.3928 96.4092 53.3928C96.667 53.3928 96.9951 53.1858 97.3936 52.7717V53.6038C96.7764 54.2444 96.2412 54.5647 95.7881 54.5647C95.5225 54.5647 95.3115 54.5334 95.1553 54.4709C95.0068 54.4006 94.8154 54.2795 94.5811 54.1077C93.1436 55.8342 92.0498 56.6975 91.2998 56.6975C91.0107 56.6975 90.7803 56.592 90.6084 56.3811C90.4443 56.1624 90.3623 55.8616 90.3623 55.4788C90.3623 55.2913 90.4404 54.5881 90.5967 53.3694C90.292 53.7209 89.9365 54.135 89.5303 54.6116C89.124 55.0881 88.7959 55.4553 88.5459 55.7131C88.2959 55.9631 88.0615 56.1584 87.8428 56.2991C87.6318 56.4397 87.417 56.51 87.1982 56.51C86.9873 56.51 86.7334 56.3772 86.4365 56.1116C86.1475 55.8459 85.9014 55.4944 85.6982 55.0569C85.4951 54.6116 85.3936 54.135 85.3936 53.6272C85.3936 53.135 85.4639 52.7131 85.6045 52.3616C85.7451 52.01 86.0654 51.4827 86.5654 50.7795C87.0186 50.1545 87.4209 49.6428 87.7725 49.2444C88.124 48.8459 88.4404 48.5374 88.7217 48.3186C89.0107 48.0999 89.2451 47.9905 89.4248 47.9905C89.5342 47.9905 89.6748 48.0178 89.8467 48.0725C90.0264 48.1194 90.1826 48.1858 90.3154 48.2717C90.4561 48.3577 90.5264 48.4475 90.5264 48.5413C90.5264 48.8381 90.3936 49.2131 90.1279 49.6663C89.8701 50.1194 89.4834 50.6272 88.9678 51.1897C88.4521 51.7522 87.8623 52.3264 87.1982 52.9124C87.0186 53.4514 86.9287 53.8889 86.9287 54.2249C86.9287 54.3342 86.96 54.4397 87.0225 54.5413C87.0928 54.635 87.1748 54.6819 87.2686 54.6819C87.5889 54.6819 88.2021 54.1819 89.1084 53.1819C90.0225 52.1819 91.2256 50.6663 92.7178 48.635C92.7725 48.5569 92.8896 48.5178 93.0693 48.5178C93.2646 48.5178 93.4404 48.5608 93.5967 48.6467C93.7607 48.7327 93.8428 48.8499 93.8428 48.9983C93.8428 49.0842 93.6357 49.5413 93.2217 50.3694C92.8154 51.1975 92.46 51.9592 92.1553 52.6545C91.8584 53.342 91.71 53.8577 91.71 54.2014Z" fill="#343A42"/>
</g>
<defs>
<clipPath id="clip0">
<rect width="120" height="75.12" fill="white" transform="translate(0 0.5)"/>
</clipPath>
</defs>
</svg>
