<svg width="45" height="46" viewBox="0 0 45 46" fill="none" xmlns="http://www.w3.org/2000/svg">
<path d="M1.40621 14.6225H43.5937C44.3699 14.6225 44.9999 13.9924 44.9999 13.2163C44.9999 12.44 44.3698 11.8101 43.5937 11.8101H1.40621C0.629932 11.8101 0 12.4401 0 13.2163C0 13.9924 0.630049 14.6225 1.40621 14.6225Z" fill="#343A42"/>
<path d="M43.5937 21.6538H1.40621C0.629932 21.6538 0 22.2838 0 23.06C0 23.8362 0.630049 24.4662 1.40621 24.4662H43.5937C44.3699 24.4662 44.9999 23.8362 44.9999 23.06C44.9999 22.2838 44.3699 21.6538 43.5937 21.6538Z" fill="#343A42"/>
<path d="M43.5937 31.4975H15.4687C14.6924 31.4975 14.0625 32.1276 14.0625 32.9037C14.0625 33.68 14.6925 34.31 15.4687 34.31H43.5937C44.37 34.31 44.9999 33.6799 44.9999 32.9037C45 32.1275 44.37 31.4975 43.5937 31.4975Z" fill="#343A42"/>
</svg>
