<svg width="49" height="50" viewBox="0 0 49 50" fill="none" xmlns="http://www.w3.org/2000/svg">
<g clip-path="url(#clip0)">
<path d="M42.2194 34.604C39.2593 32.0722 36.2552 30.5387 33.3315 33.0666L31.5857 34.5944C30.3083 35.7035 27.9334 40.8855 18.751 30.3226C9.57055 19.773 15.0337 18.1304 16.313 17.0309L18.0683 15.5011C20.9768 12.9675 19.8792 9.77795 17.7815 6.49471L16.5156 4.50602C14.4084 1.23043 12.1138 -0.920788 9.19768 1.60905L7.62203 2.98583C6.33321 3.92471 2.73063 6.97658 1.85676 12.7744C0.805051 19.7309 4.12271 27.6971 11.7237 36.4378C19.3151 45.1822 26.7478 49.5746 33.7885 49.4981C39.6398 49.435 43.1736 46.2951 44.2788 45.1536L45.8602 43.7749C48.7686 41.2469 46.9616 38.6731 43.9996 36.1356L42.2194 34.604Z" fill="#CDBA6D"/>
</g>
<defs>
<clipPath id="clip0">
<rect width="49" height="49" fill="white" transform="translate(0 0.5)"/>
</clipPath>
</defs>
</svg>
