<svg width="24" height="24" viewBox="0 0 24 24" fill="none" xmlns="http://www.w3.org/2000/svg">
<g clip-path="url(#clip0)">
<path d="M20.3172 16.5079C18.9278 15.3195 17.5177 14.5997 16.1453 15.7863L15.3259 16.5034C14.7263 17.024 13.6115 19.4564 9.30143 14.4983C4.99224 9.54641 7.55657 8.7754 8.15704 8.2593L8.981 7.54125C10.3462 6.35198 9.83099 4.85485 8.84636 3.31374L8.25218 2.38028C7.26307 0.842755 6.18599 -0.167001 4.81721 1.02047L4.07762 1.66672C3.47267 2.10742 1.78166 3.53993 1.37148 6.26133C0.877817 9.52666 2.43509 13.2659 6.00289 17.3687C9.56621 21.4732 13.055 23.5349 16.3598 23.499C19.1064 23.4694 20.7651 21.9956 21.2839 21.4597L22.0261 20.8126C23.3913 19.626 22.5431 18.4179 21.1528 17.2268L20.3172 16.5079Z" fill="#CDBA6D"/>
</g>
<defs>
<clipPath id="clip0">
<rect width="23" height="23" fill="white" transform="translate(0.5 0.5)"/>
</clipPath>
</defs>
</svg>
