<svg width="41" height="40" viewBox="0 0 41 40" fill="none" xmlns="http://www.w3.org/2000/svg">
<circle cx="20.2568" cy="20" r="19.5" stroke="#CDBA6D"/>
<path d="M19.2435 10.0046C17.815 10.0903 16.4609 10.4808 15.1878 11.1273C14.5444 11.4539 14.468 11.82 14.8515 12.4273C16.1793 14.5305 17.5071 16.6335 18.8426 18.7318C18.9821 18.9509 19.1486 19.1654 19.3436 19.3342C19.827 19.7525 20.4367 19.5728 20.6062 18.9599C20.6834 18.6797 20.6808 18.3775 20.7051 18.168C20.537 15.676 20.3783 13.2712 20.2111 10.8666C20.1639 10.1924 19.9246 9.96372 19.2435 10.0046Z" fill="white"/>
<path d="M22.9792 21.2481C23.0495 21.2381 23.1375 21.2334 23.2218 21.2125C24.6235 20.8637 26.0265 20.519 27.4251 20.1592C28.0406 20.0009 28.2377 19.6521 28.0149 19.055C27.6026 17.9519 26.9581 16.99 26.0955 16.1887C25.6311 15.7572 25.2227 15.8058 24.8469 16.3094C23.9696 17.4852 23.105 18.6705 22.234 19.8508C22.0229 20.1367 22.0072 20.4396 22.1711 20.7453C22.3382 21.0563 22.5984 21.2374 22.9792 21.2481Z" fill="white"/>
<path d="M18.9668 21.9186C18.9852 21.4893 18.8022 21.1946 18.3863 21.0241C17.0699 20.4848 15.7527 19.9475 14.4321 19.4184C13.7635 19.1505 13.3724 19.3263 13.2133 20.031C13.0696 20.6678 12.9822 22.2933 13.1268 23.4469C13.2505 24.0179 13.5991 24.2064 14.1521 24.0352C15.5428 23.6056 16.9292 23.1624 18.316 22.7205C18.7479 22.5823 18.9493 22.3252 18.9668 21.9186Z" fill="white"/>
<path d="M27.6994 24.4427C26.2672 23.9637 24.8361 23.4829 23.4025 23.0088C23.0531 22.8932 22.7511 22.9979 22.5187 23.2763C22.2759 23.5675 22.1699 23.9067 22.3782 24.2481C23.1898 25.5741 24.0117 26.8935 24.8425 28.2074C25.0432 28.5256 25.3632 28.5936 25.7071 28.4292C25.8539 28.3593 25.995 28.267 26.1171 28.16C26.9077 27.4671 27.5524 26.6574 28.0282 25.7185C28.1201 25.5363 28.1656 25.3309 28.2326 25.1358C28.2124 24.7658 28.0259 24.552 27.6994 24.4427Z" fill="white"/>
<path d="M20.6332 24.7845C20.6312 24.3579 20.4646 24.1081 20.1031 23.9643C19.7169 23.8112 19.3579 23.8814 19.0894 24.1976C18.131 25.326 17.1755 26.457 16.2296 27.5959C15.872 28.0268 15.9094 28.4342 16.3717 28.7515C17.3924 29.4513 18.5303 29.8714 19.7629 29.9935C20.3155 30.0481 20.6016 29.7511 20.6077 29.1936C20.6161 28.4587 20.6098 27.7239 20.6098 26.9889C20.6181 26.9889 20.6263 26.9889 20.6343 26.9889C20.6343 26.2542 20.6371 25.5192 20.6332 24.7845Z" fill="white"/>
</svg>
