<svg width="40" height="40" viewBox="0 0 40 40" fill="none" xmlns="http://www.w3.org/2000/svg">
<circle cx="20" cy="20" r="19.5" stroke="#CDBA6D"/>
<path d="M29.9278 15.5793C29.701 14.7359 29.036 14.071 28.1927 13.8439C26.6521 13.4224 20.4895 13.4224 20.4895 13.4224C20.4895 13.4224 14.3272 13.4224 12.7866 13.8279C11.9595 14.0548 11.2783 14.736 11.0514 15.5793C10.646 17.1198 10.646 20.3145 10.646 20.3145C10.646 20.3145 10.646 23.5254 11.0514 25.0498C11.2785 25.8931 11.9433 26.558 12.7867 26.7851C14.3434 27.2067 20.4897 27.2067 20.4897 27.2067C20.4897 27.2067 26.6521 27.2067 28.1927 26.8012C29.0361 26.5742 29.701 25.9093 29.9281 25.066C30.3334 23.5254 30.3334 20.3308 30.3334 20.3308C30.3334 20.3308 30.3496 17.1198 29.9278 15.5793V15.5793ZM18.5275 23.266V17.3631L23.652 20.3145L18.5275 23.266Z" fill="white"/>
</svg>
